<svg width="43" height="46" viewBox="0 0 43 46" fill="none" xmlns="http://www.w3.org/2000/svg">
<g opacity="0.4">
<mask id="mask0_16432_14853" style="mask-type:alpha" maskUnits="userSpaceOnUse" x="0" y="0" width="43" height="46">
<rect width="42.3448" height="45.6264" rx="10.9887" fill="#00126D"/>
</mask>
<g mask="url(#mask0_16432_14853)">
<rect width="42.3448" height="45.6264" rx="10.9887" fill="#00126D"/>
<ellipse cx="3.27384" cy="1.50921" rx="39.6488" ry="75.4155" fill="url(#paint0_radial_16432_14853)"/>
<ellipse cx="38.1389" cy="4.74405" rx="49.1955" ry="47.7362" fill="url(#paint1_radial_16432_14853)"/>
<ellipse cx="44.1781" cy="26.3899" rx="39.6488" ry="15.4602" fill="url(#paint2_radial_16432_14853)"/>
<ellipse cx="35.477" cy="42.9902" rx="39.6488" ry="23.7559" fill="url(#paint3_radial_16432_14853)"/>
<ellipse cx="2.69376" cy="60.1346" rx="39.6488" ry="32.2401" fill="url(#paint4_radial_16432_14853)"/>
<ellipse cx="-0.866783" cy="49.9069" rx="39.6488" ry="25.6413" fill="url(#paint5_radial_16432_14853)"/>
<ellipse cx="7.93074" cy="-13.711" rx="18.4483" ry="31.6483" fill="url(#paint6_radial_16432_14853)"/>
</g>
</g>
<rect x="1.76758" y="1.52344" width="39.169" height="42.2044" rx="10.9887" fill="#1D1D1D"/>
<path d="M7.09117 32.7833C8.27711 32.5821 9.4041 32.3209 10.4819 31.9961L10.364 32.5997C8.33608 32.8892 7.08789 32.7833 7.08789 32.7833H7.09117Z" fill="#E3101C"/>
<path d="M34.6018 11.9985C33.501 9.12155 31.3781 7.69192 31.3781 7.69192C26.1691 4.62791 17.1664 7.04946 16.0165 7.39187C14.8699 7.73781 14.9354 8.62736 14.9354 8.62736L10.4832 31.9851L10.3653 32.5888L9.13672 39.0274C9.13672 39.0274 10.6667 39.1651 13.2122 39.1651C15.7577 39.1651 16.0787 35.9387 16.0787 35.9387L17.0452 30.6367L17.3826 28.787L20.5408 11.4407C20.5408 11.4407 22.7063 10.8901 24.9995 10.823C27.2895 10.7559 29.0127 12.0585 29.1405 14.1835C29.1405 14.2188 29.1405 14.2541 29.1372 14.2894C28.9079 21.3388 18.1885 30.0366 18.1885 30.0366C18.2213 30.0437 18.2508 30.0507 18.2803 30.0543C31.9612 33.203 35.1915 21.0317 35.257 15.6944C35.2734 14.2718 35.008 13.0363 34.6083 11.995L34.6018 11.9985Z" fill="white"/>
<path d="M35.676 8.59203C35.676 8.59203 35.4664 9.88753 34.5982 12.0126C33.6874 14.247 32.0461 17.3993 29.1632 20.9293C25.5595 25.5182 21.7199 28.3422 18.2735 30.0754C17.8574 30.2837 17.4479 30.4778 17.0449 30.6579L17.3823 28.8081C23.5054 24.8122 27.1189 18.8748 29.1337 14.3106C30.8012 10.537 31.3778 7.70954 31.3778 7.70954L34.1592 5.9375L35.6793 8.59556L35.676 8.59203Z" fill="#E3101C"/>
<path fill-rule="evenodd" clip-rule="evenodd" d="M26.4847 35.9297C26.4978 36.0426 26.4847 36.5263 26.0752 37.1899C25.6461 37.9206 26.3242 39.142 27.6936 38.8313C27.995 38.9478 28.3194 38.9655 28.529 38.9619C28.7387 38.9619 29.0663 38.9478 29.3677 38.8349C30.7371 39.1455 31.412 37.9206 30.9828 37.1899C30.57 36.5298 30.5602 36.0426 30.5733 35.9297H26.4913H26.4847Z" fill="#E5252B"/>
<path fill-rule="evenodd" clip-rule="evenodd" d="M28.5267 38.9483C27.1901 38.9095 26.9476 38.2459 27.3146 38.1082C27.5308 38.027 27.8125 37.8929 27.8125 37.8929C27.6684 37.1445 27.9043 36.1879 28.53 36.1914C29.1557 36.1914 29.3818 37.1763 29.2409 37.9105C29.2409 37.9105 29.5259 38.0199 29.7356 38.1117C30.0861 38.2564 29.8634 38.913 28.5267 38.9518" fill="#0682C4"/>
<path fill-rule="evenodd" clip-rule="evenodd" d="M28.025 38.4276C27.6679 37.358 27.9824 36.3555 28.5295 36.3555C29.0504 36.359 29.4042 37.3297 29.0373 38.424C29.0373 38.424 28.8637 38.3817 28.5131 38.3817C28.2511 38.3817 28.0283 38.4276 28.0283 38.4276" fill="#FFE11B"/>
<path fill-rule="evenodd" clip-rule="evenodd" d="M28.5257 38.9638C29.0662 38.9638 29.4888 38.8402 29.4888 38.6672C29.4888 38.4943 29.0662 38.3672 28.5257 38.3672C27.9851 38.3672 27.5625 38.4907 27.5625 38.6672C27.5625 38.8437 27.9851 38.9638 28.5257 38.9638Z" fill="#F49824"/>
<path fill-rule="evenodd" clip-rule="evenodd" d="M26.7497 36.4609H27.3998C27.5016 36.4609 27.5836 36.5494 27.5836 36.6591V37.1296C27.5836 37.2428 27.5016 37.3313 27.3998 37.3313H26.7497C26.6479 37.3313 26.5625 37.2428 26.5625 37.1296V36.6591C26.5625 36.5494 26.6446 36.4609 26.7497 36.4609Z" fill="#0682C4"/>
<path d="M26.8209 36.5664H27.3331C27.4119 36.5664 27.4743 36.6336 27.4743 36.715V37.0582C27.4743 37.1431 27.4119 37.2103 27.3331 37.2103H26.8209C26.7421 37.2103 26.6797 37.1431 26.6797 37.0582V36.715C26.6797 36.6336 26.7421 36.5664 26.8209 36.5664Z" fill="#231F20"/>
<path fill-rule="evenodd" clip-rule="evenodd" d="M27.4721 36.9766C27.2391 36.9518 27.1603 36.6583 27.1406 36.5664H27.331C27.4097 36.5664 27.4721 36.6336 27.4721 36.7149V36.973V36.9766Z" fill="#FFE11B"/>
<path fill-rule="evenodd" clip-rule="evenodd" d="M27.0144 36.5664C27.0013 36.6513 26.9258 36.9624 26.6797 36.9766V36.7149C26.6797 36.6336 26.742 36.5664 26.8208 36.5664H27.0144Z" fill="#FFE11B"/>
<path fill-rule="evenodd" clip-rule="evenodd" d="M29.6604 36.4609H30.3073C30.4091 36.4609 30.4944 36.5494 30.4944 36.6591V37.1296C30.4944 37.2428 30.4124 37.3313 30.3073 37.3313H29.6604C29.5586 37.3313 29.4766 37.2428 29.4766 37.1296V36.6591C29.4766 36.5494 29.5586 36.4609 29.6604 36.4609Z" fill="#0682C4"/>
<path d="M29.7317 36.5664H30.2472C30.326 36.5664 30.3884 36.6336 30.3884 36.715V37.0582C30.3884 37.1431 30.326 37.2103 30.2472 37.2103H29.7317C29.6561 37.2103 29.5938 37.1431 29.5938 37.0582V36.715C29.5938 36.6336 29.6561 36.5664 29.7317 36.5664Z" fill="#231F20"/>
<path fill-rule="evenodd" clip-rule="evenodd" d="M30.392 36.9766C30.159 36.9518 30.0802 36.6583 30.0605 36.5664H30.2542C30.3329 36.5664 30.3953 36.6336 30.3953 36.7149V36.973L30.392 36.9766Z" fill="#FFE11B"/>
<path fill-rule="evenodd" clip-rule="evenodd" d="M29.9285 36.5664C29.912 36.6513 29.8399 36.9624 29.5938 36.9766V36.7149C29.5938 36.6336 29.6561 36.5664 29.7316 36.5664H29.9285Z" fill="#FFE11B"/>
<path fill-rule="evenodd" clip-rule="evenodd" d="M29.8673 34.1135C29.7984 33.8623 29.7853 33.7384 29.9987 33.7384H30.4682C30.7539 33.7314 30.6357 33.9719 30.6094 34.2054C30.5733 34.5132 30.5733 34.6088 30.5733 34.6088C30.5733 34.6088 29.8673 34.1205 29.8673 34.117" fill="#E5252B"/>
<path fill-rule="evenodd" clip-rule="evenodd" d="M28.529 35.9116C27.8311 35.9116 26.8745 35.9786 26.2586 36.0281C25.7869 36.0669 25.4199 35.6786 25.7344 35.3115C26.406 34.5278 28.0408 33.543 28.5355 33.543C29.063 33.543 30.665 34.5278 31.3366 35.3115C31.6511 35.6786 31.3366 36.0281 30.8582 36.0281C30.3308 36.0281 29.2268 35.9116 28.529 35.9116Z" fill="#F49824"/>
<path d="M28.9102 37.662C28.9102 37.6049 28.95 37.5586 29.0032 37.5586C29.0564 37.5586 29.0929 37.6049 29.0929 37.662C29.0929 37.719 29.0531 37.7618 29.0032 37.7618C28.9534 37.7618 28.9102 37.7155 28.9102 37.662Z" fill="#231F20"/>
<path fill-rule="evenodd" clip-rule="evenodd" d="M28.5241 38.3505C28.2457 38.3505 28.0229 38.3964 28.0229 38.3964C27.692 37.3551 27.9934 36.3773 28.5241 36.3773C29.0549 36.3773 29.3595 37.3586 29.0254 38.3964C29.0254 38.3964 28.8124 38.3505 28.5241 38.3505ZM29.0156 38.4317C29.2907 38.4776 29.4742 38.5659 29.4742 38.6647C29.4742 38.813 29.0516 38.9365 28.5274 38.9365C28.0032 38.9365 27.5806 38.813 27.5806 38.6647C27.5806 38.5659 27.7608 38.4776 28.036 38.4317C28.036 38.4317 28.3341 38.3929 28.5274 38.3929C28.7207 38.3929 29.0188 38.4317 29.0188 38.4317M29.0581 38.4C29.4054 37.3198 29.068 36.3279 28.5274 36.3314C27.9869 36.3314 27.6494 37.3233 27.9967 38.4C27.7281 38.4564 27.5511 38.5518 27.5511 38.6647C27.5511 38.7 27.5708 38.7318 27.6036 38.7636C27.1515 38.5518 27.1089 38.2023 27.3579 38.107C27.5708 38.0258 27.8329 37.9164 27.8329 37.9164C27.6953 37.1892 27.9082 36.2149 28.5307 36.2149C29.1531 36.2149 29.3661 37.1892 29.2252 37.9164C29.2252 37.9164 29.484 38.0293 29.7002 38.107C29.9427 38.1952 29.9066 38.5447 29.4578 38.76C29.4906 38.7283 29.507 38.6965 29.507 38.6612C29.507 38.5518 29.3301 38.4529 29.0614 38.3964M29.8968 34.1005C29.8444 33.871 29.8411 33.7757 30.0246 33.7757H30.4275C30.6929 33.7722 30.5848 33.991 30.5619 34.2134C30.5488 34.3476 30.5389 34.457 30.5357 34.5382C30.3227 34.3758 30.1065 34.2311 29.9001 34.1005M29.4316 38.8165C30.7158 39.0495 31.3416 37.8916 30.9321 37.1892C30.6143 36.6809 30.5389 36.2537 30.5291 36.0349C29.6872 35.989 29.1073 35.9431 28.5274 35.936C27.9476 35.9431 27.3677 35.989 26.5257 36.0349C26.5126 36.2537 26.4373 36.6809 26.1195 37.1892C25.71 37.8916 26.3357 39.0495 27.6199 38.8165C27.0761 38.5941 27.0073 38.2164 27.2989 38.0929C27.5118 38.0046 27.7968 37.8917 27.7968 37.8917C27.656 37.1433 27.9017 36.1549 28.5241 36.1549C29.1499 36.1549 29.3956 37.1398 29.2514 37.8917C29.2514 37.8917 29.5364 38.0046 29.7494 38.0929C30.041 38.2129 29.9722 38.5941 29.4283 38.8165M28.5274 35.8443C27.8034 35.8549 27.1187 35.9113 26.3128 35.9678C25.8115 36.0031 25.5298 35.6431 25.8443 35.2689C26.3095 34.7217 27.8984 33.5922 28.5274 33.5922C29.1564 33.5922 30.7421 34.7217 31.2105 35.2689C31.525 35.6395 31.2433 36.0031 30.7453 35.9678C29.9394 35.9113 29.2514 35.8584 28.5307 35.8443M29.8051 34.0405C29.7985 34.0193 29.792 33.9946 29.7887 33.9734C29.7527 33.8392 29.7887 33.691 30.0017 33.691H30.4701C30.7453 33.691 30.7158 33.8957 30.6667 34.0934C30.6339 34.2346 30.6077 34.4146 30.5946 34.5841C30.5946 34.5841 30.9779 34.8877 31.1909 35.0818C31.8592 35.6925 31.4235 36.0878 30.7846 36.0561C30.7191 36.0525 30.6569 36.049 30.5946 36.0455C30.5979 36.2467 30.6536 36.6209 30.9484 37.048C31.6888 38.0046 30.706 39.2048 29.3202 38.8659C29.0909 38.9471 28.7273 38.9859 28.5274 38.9859C28.3276 38.9859 27.9639 38.9471 27.7313 38.8659C26.3455 39.2048 25.3627 38.0046 26.1031 37.048C26.398 36.6244 26.4537 36.2502 26.4569 36.0455L26.2702 36.0561C25.6314 36.0914 25.1956 35.6925 25.864 35.0818C26.8599 34.1781 28.0622 33.5074 28.5274 33.5039C28.783 33.5039 29.2613 33.7122 29.8051 34.044" fill="#231F20"/>
<path d="M27.3883 37.3404H26.7396C26.6249 37.3404 26.5332 37.2416 26.5332 37.118V36.6485C26.5332 36.5285 26.6249 36.4297 26.7396 36.4297H27.3883C27.4996 36.4297 27.5914 36.5285 27.5914 36.6485V37.118C27.5914 37.2416 27.4996 37.3404 27.3883 37.3404ZM26.7429 36.472C26.6511 36.472 26.5758 36.5532 26.5758 36.6485V37.118C26.5758 37.2169 26.6511 37.2981 26.7429 37.2981H27.3915C27.4833 37.2981 27.5553 37.2169 27.5553 37.118V36.6485C27.5553 36.5497 27.48 36.472 27.3915 36.472H26.7429Z" fill="#231F20"/>
<path d="M30.3095 37.3404H29.6641C29.5527 37.3404 29.4609 37.2416 29.4609 37.118V36.6485C29.4609 36.5285 29.5527 36.4297 29.6641 36.4297H30.3095C30.4241 36.4297 30.5158 36.5285 30.5158 36.6485V37.118C30.5158 37.2416 30.4241 37.3404 30.3095 37.3404ZM29.6608 36.472C29.569 36.472 29.497 36.5532 29.497 36.6485V37.118C29.497 37.2169 29.5723 37.2981 29.6608 37.2981H30.3062C30.3979 37.2981 30.4733 37.2169 30.4733 37.118V36.6485C30.4733 36.5497 30.3979 36.472 30.3062 36.472H29.6608Z" fill="#231F20"/>
<defs>
<radialGradient id="paint0_radial_16432_14853" cx="0" cy="0" r="1" gradientUnits="userSpaceOnUse" gradientTransform="translate(3.27384 1.50921) rotate(90) scale(75.4155 39.6488)">
<stop stop-color="#F69100"/>
<stop offset="0.93" stop-color="#F69100" stop-opacity="0"/>
</radialGradient>
<radialGradient id="paint1_radial_16432_14853" cx="0" cy="0" r="1" gradientUnits="userSpaceOnUse" gradientTransform="translate(38.1389 4.74405) rotate(90) scale(47.7362 49.1955)">
<stop stop-color="#BCBABA"/>
<stop offset="1" stop-color="#959595" stop-opacity="0"/>
</radialGradient>
<radialGradient id="paint2_radial_16432_14853" cx="0" cy="0" r="1" gradientUnits="userSpaceOnUse" gradientTransform="translate(44.1781 26.3899) rotate(90) scale(15.4602 39.6488)">
<stop stop-color="#959595"/>
<stop offset="1" stop-color="#959595" stop-opacity="0"/>
</radialGradient>
<radialGradient id="paint3_radial_16432_14853" cx="0" cy="0" r="1" gradientUnits="userSpaceOnUse" gradientTransform="translate(35.477 42.9902) rotate(90) scale(23.7559 39.6488)">
<stop stop-color="#1D1D1D"/>
<stop offset="1" stop-color="#1D1D1D" stop-opacity="0"/>
</radialGradient>
<radialGradient id="paint4_radial_16432_14853" cx="0" cy="0" r="1" gradientUnits="userSpaceOnUse" gradientTransform="translate(2.69376 60.1346) rotate(90) scale(32.2401 39.6488)">
<stop stop-color="#FDCB5A"/>
<stop offset="0.93" stop-color="#FDCB5A" stop-opacity="0"/>
</radialGradient>
<radialGradient id="paint5_radial_16432_14853" cx="0" cy="0" r="1" gradientUnits="userSpaceOnUse" gradientTransform="translate(-0.866783 49.9069) rotate(90) scale(25.6413 39.6488)">
<stop stop-color="#FF0033"/>
<stop offset="1" stop-color="#FF0033" stop-opacity="0"/>
</radialGradient>
<radialGradient id="paint6_radial_16432_14853" cx="0" cy="0" r="1" gradientUnits="userSpaceOnUse" gradientTransform="translate(7.93074 -13.711) rotate(90) scale(31.6483 18.4483)">
<stop stop-color="#FF6720"/>
<stop offset="1" stop-color="#FF6720" stop-opacity="0"/>
</radialGradient>
</defs>
</svg>
